<?xml version="1.0" encoding="UTF-8"?>
<svg width="26px" height="26px" viewBox="0 0 26 26" version="1.1" xmlns="http://www.w3.org/2000/svg" xmlns:xlink="http://www.w3.org/1999/xlink">
    <title>icon/avatar</title>
    <defs>
        <rect id="path-1" x="0" y="0" width="26" height="26" rx="13"></rect>
    </defs>
    <g id="页面-1" stroke="none" stroke-width="1" fill="none" fill-rule="evenodd">
        <g id="iPhone-11备份-4" transform="translate(-16.000000, -40.000000)">
            <g id="avtar-top" transform="translate(0.000000, 25.000000)">
                <g id="icon/avatar" transform="translate(16.000000, 15.000000)">
                    <mask id="mask-2" fill="white">
                        <use xlink:href="#path-1"></use>
                    </mask>
                    <rect stroke="#333333" stroke-width="2" x="1" y="1" width="24" height="24" rx="12"></rect>
                    <path d="M13,16 C10.8,16 9,14.2 9,12 C9,9.8 10.8,8 13,8 C15.2,8 17,9.8 17,12 C17,14.2 15.2,16 13,16 M16.6,16.8 C18,15.6 19,14 19,12 C19,8.6 16.4,6 13,6 C9.6,6 7,8.6 7,12 C7,14 8,15.6 9.4,16.8 C6.2,18.2 4,21.4 4,25 C4,25.6 4.4,26 5,26 C5.6,26 6,25.6 6,25 C6,21.2 9.2,18 13,18 C16.8,18 20,21.2 20,25 C20,25.6 20.4,26 21,26 C21.6,26 22,25.6 22,25 C22,21.4 19.8,18.2 16.6,16.8" id="Fill-1" fill="#333333" mask="url(#mask-2)"></path>
                </g>
            </g>
        </g>
    </g>
</svg>