<?xml version="1.0" encoding="UTF-8"?>
<svg width="24px" height="24px" viewBox="0 0 24 24" version="1.1" xmlns="http://www.w3.org/2000/svg" xmlns:xlink="http://www.w3.org/1999/xlink">
    <title>icon/clock</title>
    <g id="页面-1" stroke="none" stroke-width="1" fill="none" fill-rule="evenodd">
        <g id="iPhone-11备份-4" transform="translate(-311.000000, -41.000000)" fill="#000000">
            <g id="avtar-top" transform="translate(0.000000, 25.000000)">
                <g id="btn" transform="translate(311.000000, 13.000000)">
                    <g id="icon/clock" transform="translate(0.000000, 3.000000)">
                        <g id="编组" transform="translate(3.000000, 3.000000)">
                            <path d="M3.20625,1.28115 C3.62925,1.28115 3.9735,1.62465 3.9735,2.04765 C3.97275,2.47065 3.6285,2.8149 3.20625,2.8149 L3.20625,2.8149 L2.0475,2.8149 C1.83225,2.8149 1.656,2.99115 1.656,3.2064 L1.656,3.2064 L1.656,5.3364 L16.344,5.3364 L16.344,3.2064 C16.344,2.99115 16.1685,2.8149 15.9525,2.8149 L15.9525,2.8149 L14.79375,2.8149 C14.37075,2.8149 14.0265,2.47065 14.0265,2.04765 C14.0265,1.62465 14.37075,1.28115 14.79375,1.28115 L14.79375,1.28115 L15.9525,1.28115 C17.01375,1.2819 17.877,2.1459 17.87775,3.2064 L17.87775,3.2064 L17.87775,15.9519 C17.877,17.01315 17.01375,17.87715 15.9525,17.8779 L15.9525,17.8779 L2.0475,17.8779 C0.987,17.87715 0.123,17.01315 0.12225,15.9519 L0.12225,15.9519 L0.12225,3.2064 C0.123,2.1459 0.987,1.2819 2.0475,1.28115 L2.0475,1.28115 Z M16.344,6.87015 L1.656,6.87015 L1.656,15.9519 C1.656,16.1679 1.83225,16.34415 2.0475,16.34415 L2.0475,16.34415 L15.9525,16.34415 C16.1685,16.34415 16.344,16.1679 16.344,15.9519 L16.344,15.9519 L16.344,6.87015 Z M12.512925,8.457675 C12.805425,8.167425 13.309425,8.168925 13.598175,8.457675 C13.895925,8.756925 13.895925,9.242925 13.598175,9.542175 L13.598175,9.542175 L8.383425,14.756925 C8.238675,14.900925 8.046675,14.981175 7.841175,14.981175 C7.635675,14.981175 7.442925,14.900925 7.298925,14.755425 L7.298925,14.755425 L4.402425,11.860425 C4.103925,11.560425 4.103925,11.074425 4.402425,10.775175 C4.691925,10.485675 5.198175,10.486425 5.486925,10.775925 L5.486925,10.775925 L7.841175,13.129425 Z M13.0554,0.122175 C13.47765,0.122175 13.8219,0.466425 13.8219,0.889425 L13.8219,0.889425 L13.8219,3.206925 C13.8219,3.629925 13.47765,3.973425 13.0554,3.973425 C12.63315,3.973425 12.2889,3.629925 12.2889,3.206925 L12.2889,3.206925 L12.2889,0.889425 C12.2889,0.466425 12.63315,0.122175 13.0554,0.122175 Z M4.9446,0.122175 C5.3676,0.122175 5.7111,0.466425 5.7111,0.889425 L5.7111,0.889425 L5.7111,3.206925 C5.7111,3.629925 5.3676,3.973425 4.9446,3.973425 C4.5216,3.973425 4.1781,3.629925 4.1781,3.206925 L4.1781,3.206925 L4.1781,0.889425 C4.1781,0.466425 4.5216,0.122175 4.9446,0.122175 Z M11.31765,1.280925 C11.7399,1.280925 12.08415,1.625175 12.08415,2.048175 C12.08415,2.471175 11.7399,2.814675 11.31765,2.814675 L11.31765,2.814675 L6.68265,2.814675 C6.25965,2.814675 5.91615,2.470425 5.91615,2.047425 C5.91615,1.625175 6.25965,1.280925 6.68265,1.280925 L6.68265,1.280925 Z" id="形状结合"></path>
                        </g>
                    </g>
                </g>
            </g>
        </g>
    </g>
</svg>