<?xml version="1.0" encoding="UTF-8"?>
<svg width="38px" height="39px" viewBox="0 0 38 39" version="1.1" xmlns="http://www.w3.org/2000/svg" xmlns:xlink="http://www.w3.org/1999/xlink">
    <title>icon/reback</title>
    <defs>
        <linearGradient x1="15.9824986%" y1="0%" x2="50%" y2="100%" id="linearGradient-1">
            <stop stop-color="#F7BBA0" offset="0%"></stop>
            <stop stop-color="#FA884F" offset="100%"></stop>
        </linearGradient>
        <path d="M22.6450125,11.9691 L22.6450125,4.1256 C22.6450125,1.9161 20.9957625,0.11835 18.9696375,0.11835 L4.0498875,0.11835 C2.0237625,0.11835 0.3745125,1.9161 0.3745125,4.1256 L0.3745125,23.1111 C0.3745125,25.3206 2.0237625,27.11835 4.0498875,27.11835 L18.6996375,27.11835 C20.8787625,27.11835 22.6450125,25.3521 22.6450125,23.172975 L22.6450125,11.9691 Z" id="path-2"></path>
        <filter x="-29.2%" y="-20.4%" width="158.4%" height="148.1%" filterUnits="objectBoundingBox" id="filter-3">
            <feOffset dx="0" dy="1" in="SourceAlpha" result="shadowOffsetOuter1"></feOffset>
            <feGaussianBlur stdDeviation="2" in="shadowOffsetOuter1" result="shadowBlurOuter1"></feGaussianBlur>
            <feColorMatrix values="0 0 0 0 0.534844882   0 0 0 0 0.175839413   0 0 0 0 0  0 0 0 0.2 0" type="matrix" in="shadowBlurOuter1"></feColorMatrix>
        </filter>
        <path d="M19.40625,13.0116375 C15.683625,13.0116375 12.65625,16.0390125 12.65625,19.7616375 C12.65625,23.4831375 15.683625,26.5116375 19.40625,26.5116375 C23.128875,26.5116375 26.15625,23.4831375 26.15625,19.7616375 C26.15625,16.0390125 23.128875,13.0116375 19.40625,13.0116375" id="path-4"></path>
        <filter x="-51.9%" y="-37.0%" width="203.7%" height="203.7%" filterUnits="objectBoundingBox" id="filter-5">
            <feOffset dx="0" dy="2" in="SourceAlpha" result="shadowOffsetOuter1"></feOffset>
            <feGaussianBlur stdDeviation="2" in="shadowOffsetOuter1" result="shadowBlurOuter1"></feGaussianBlur>
            <feColorMatrix values="0 0 0 0 0.480780118   0 0 0 0 0.159198714   0 0 0 0 0  0 0 0 0.5 0" type="matrix" in="shadowBlurOuter1"></feColorMatrix>
        </filter>
    </defs>
    <g id="页面-1" stroke="none" stroke-width="1" fill="none" fill-rule="evenodd">
        <g id="iPhone-11备份-4" transform="translate(-272.000000, -89.000000)">
            <g id="我的待办" transform="translate(16.000000, 89.000000)">
                <g id="icon/reback" transform="translate(256.000000, 0.000000)">
                    <polygon id="Fill-1" fill-opacity="0.01" fill="#FFFFFF" points="0 36 36 36 36 0 0 0"></polygon>
                    <g id="编组" transform="translate(6.750000, 5.625000)">
                        <g id="Fill-2">
                            <use fill="black" fill-opacity="1" filter="url(#filter-3)" xlink:href="#path-2"></use>
                            <use fill="url(#linearGradient-1)" fill-rule="evenodd" xlink:href="#path-2"></use>
                        </g>
                        <g id="Fill-4">
                            <use fill="black" fill-opacity="1" filter="url(#filter-5)" xlink:href="#path-4"></use>
                            <use fill="#FBAE90" fill-rule="evenodd" xlink:href="#path-4"></use>
                        </g>
                        <path d="M16.1224875,7.7074875 L5.7724875,7.7074875 C5.2133625,7.7074875 4.7588625,7.2541125 4.7588625,6.6949875 C4.7588625,6.1358625 5.2133625,5.6824875 5.7724875,5.6824875 L16.1224875,5.6824875 C16.6816125,5.6824875 17.1338625,6.1358625 17.1338625,6.6949875 C17.1338625,7.2541125 16.6816125,7.7074875 16.1224875,7.7074875" id="Fill-6" fill="#FFFFFF"></path>
                        <path d="M10.4974875,13.1720625 L5.7724875,13.1720625 C5.2133625,13.1720625 4.7588625,12.7186875 4.7588625,12.1595625 C4.7588625,11.6004375 5.2133625,11.1470625 5.7724875,11.1470625 L10.4974875,11.1470625 C11.0566125,11.1470625 11.5088625,11.6004375 11.5088625,12.1595625 C11.5088625,12.7186875 11.0566125,13.1720625 10.4974875,13.1720625" id="Fill-8" fill="#FFFFFF"></path>
                        <path d="M22.032,17.2342125 L22.032,17.2342125 C21.645,16.8505875 21.020625,16.8528375 20.635875,17.2387125 L17.227125,20.6530875 C17.21025,20.6947125 17.1945,20.7318375 17.177625,20.7745875 L17.13375,21.9682125 C17.13375,22.0638375 17.211375,22.1403375 17.307,22.1403375 L18.51525,22.1009625 C18.556875,22.0840875 18.595125,22.0683375 18.63675,22.0503375 L22.03875,18.6382125 C22.42575,18.2489625 22.4235,17.6200875 22.032,17.2342125" id="Fill-10" fill="#FFFFFF"></path>
                    </g>
                </g>
            </g>
        </g>
    </g>
</svg>