<?xml version="1.0" encoding="UTF-8"?>
<svg width="46px" height="46px" viewBox="0 0 46 46" version="1.1" xmlns="http://www.w3.org/2000/svg" xmlns:xlink="http://www.w3.org/1999/xlink">
    <title>icon/应急事件</title>
    <defs>
        <linearGradient x1="0%" y1="0%" x2="50%" y2="100%" id="linearGradient-1">
            <stop stop-color="#F7BBA0" offset="0%"></stop>
            <stop stop-color="#FA884F" offset="100%"></stop>
        </linearGradient>
        <rect id="path-2" x="0" y="0" width="38" height="38" rx="10"></rect>
        <filter x="-17.1%" y="-14.5%" width="134.2%" height="134.2%" filterUnits="objectBoundingBox" id="filter-3">
            <feOffset dx="0" dy="1" in="SourceAlpha" result="shadowOffsetOuter1"></feOffset>
            <feGaussianBlur stdDeviation="2" in="shadowOffsetOuter1" result="shadowBlurOuter1"></feGaussianBlur>
            <feColorMatrix values="0 0 0 0 0.534844882   0 0 0 0 0.175839413   0 0 0 0 0  0 0 0 0.2 0" type="matrix" in="shadowBlurOuter1"></feColorMatrix>
        </filter>
        <polygon id="path-4" points="0 0.7638 18.698375 0.7638 18.698375 20.9 0 20.9"></polygon>
    </defs>
    <g id="页面-1" stroke="none" stroke-width="1" fill="none" fill-rule="evenodd">
        <g id="iPhone-11备份-4" transform="translate(-44.000000, -405.000000)">
            <g id="我的应急" transform="translate(13.000000, 363.000000)">
                <g id="ul" transform="translate(24.000000, 41.000000)">
                    <g id="icon/应急事件" transform="translate(11.000000, 4.000000)">
                        <g id="矩形">
                            <use fill="black" fill-opacity="1" filter="url(#filter-3)" xlink:href="#path-2"></use>
                            <use fill="url(#linearGradient-1)" fill-rule="evenodd" xlink:href="#path-2"></use>
                        </g>
                        <g id="编组" transform="translate(8.550000, 8.550000)">
                            <path d="M8.57204,14.908825 L4.25714,14.908825 C3.86004,14.908825 3.53799,15.294525 3.53799,15.691625 C3.53799,16.089675 3.86004,16.476325 4.25714,16.476325 L8.57204,16.476325 C8.97009,16.476325 9.29214,16.089675 9.29214,15.691625 C9.29214,15.294525 8.97009,14.908825 8.57204,14.908825 L8.57204,14.908825 Z M4.25714,10.373525 C3.86004,10.373525 3.53799,10.759225 3.53799,11.156325 C3.53799,11.554375 3.86004,11.940075 4.25714,11.940075 L10.01129,11.940075 C10.40839,11.940075 10.73044,11.554375 10.73044,11.156325 C10.73044,10.759225 10.40839,10.373525 10.01129,10.373525 L4.25714,10.373525 Z M13.60609,6.657125 C13.60609,6.260025 13.28404,5.885725 12.88694,5.885725 L4.25714,5.885725 C3.86004,5.885725 3.53799,6.260975 3.53799,6.657125 C3.53799,7.054225 3.86004,7.428525 4.25714,7.428525 L12.88694,7.428525 C13.28404,7.428525 13.60609,7.054225 13.60609,6.657125 L13.60609,6.657125 Z" id="Fill-1" fill="#FFFFFF"></path>
                            <g transform="translate(0.000000, 0.186200)">
                                <mask id="mask-5" fill="white">
                                    <use xlink:href="#path-4"></use>
                                </mask>
                                <g id="Clip-4"></g>
                                <path d="M15.608025,16.37211 C15.650775,16.40916 15.707775,16.42721 15.764775,16.42721 L16.535225,16.43101 C16.593175,16.43101 16.650175,16.41296 16.694825,16.37686 C16.735675,16.34551 16.760375,16.29611 16.761325,16.24481 L16.759425,14.91861 L16.759425,12.87801 C16.759425,12.82766 16.735675,12.77921 16.694825,12.74881 C16.650175,12.71081 16.593175,12.69181 16.535225,12.69371 L15.760025,12.69371 C15.703025,12.69181 15.646025,12.71081 15.602325,12.74881 C15.560525,12.77921 15.536775,12.82766 15.535825,12.87801 L15.535825,14.93286 L15.542475,16.24196 C15.543425,16.29041 15.563375,16.33791 15.608025,16.37211 M16.536175,17.15586 L15.760025,17.15586 C15.698275,17.15681 15.639375,17.18721 15.602325,17.23756 C15.557675,17.29361 15.534875,17.36296 15.535825,17.43421 L15.535825,17.89686 C15.535825,17.96811 15.557675,18.03746 15.602325,18.09351 C15.645075,18.14576 15.703975,18.17331 15.760025,18.17331 L16.536175,18.17331 C16.593175,18.17331 16.651125,18.14576 16.694825,18.09351 C16.737575,18.03746 16.761325,17.96811 16.760375,17.89686 L16.760375,17.43421 C16.762275,17.36296 16.738525,17.29361 16.694825,17.23756 C16.656825,17.18721 16.598875,17.15681 16.536175,17.15586 M7.388625,19.46056 L2.750725,19.46056 C2.026825,19.46056 1.438775,18.90006 1.438775,18.20846 L1.438775,3.45591 C1.438775,2.76431 2.027775,2.20096 2.750725,2.20096 L15.949075,2.20096 C16.670125,2.20096 17.260075,2.76431 17.260075,3.45591 L17.260075,6.51586 C17.259125,6.91296 17.581175,7.23501 17.978275,7.23596 C18.375375,7.23596 18.698375,6.91391 18.698375,6.51681 L18.698375,3.45591 C18.698375,1.97201 17.466225,0.76361 15.950025,0.76361 L2.750725,0.76361 C1.233575,0.76361 -0.000475,1.97106 -0.000475,3.45591 L-0.000475,18.20656 C-0.000475,19.69141 1.233575,20.90076 2.750725,20.90076 L7.388625,20.90076 C7.785725,20.90076 8.107775,20.57776 8.107775,20.18066 C8.107775,19.78261 7.785725,19.46056 7.388625,19.46056" id="Fill-3" fill="#FFFFFF" mask="url(#mask-5)"></path>
                            </g>
                            <path d="M21.34973,18.90272 C21.30888,18.97682 21.22908,19.02242 21.14358,19.0205772 L11.23888,19.0205772 C11.15433,19.02242 11.07548,18.97682 11.03558,18.90272 C10.99093,18.83052 10.99093,18.73932 11.03558,18.66712 L15.98698,10.08767 C16.10763,9.88152 16.27673,9.88152 16.39738,10.08767 L21.34973,18.66712 C21.39343,18.73932 21.39343,18.83052 21.34973,18.90272 M22.59423,17.94892 L17.64188,9.36757 C17.03863,8.31877 15.34763,8.31877 14.74343,9.36757 L9.78918,17.94892 L9.78728,17.94892 C9.48613,18.46572 9.48613,19.10507 9.78918,19.62187 C10.08558,20.14342 10.63943,20.46357 11.23888,20.4598035 L21.14358,20.4598035 C21.75063,20.4598035 22.29403,20.14627 22.59518,19.62187 C22.89728,19.10507 22.89728,18.46477 22.59423,17.94892" id="Fill-5" fill="#FFFFFF"></path>
                        </g>
                    </g>
                </g>
            </g>
        </g>
    </g>
</svg>