<?xml version="1.0" encoding="UTF-8"?>
<svg width="46px" height="46px" viewBox="0 0 46 46" version="1.1" xmlns="http://www.w3.org/2000/svg" xmlns:xlink="http://www.w3.org/1999/xlink">
    <title>icon/应急预案任务</title>
    <defs>
        <linearGradient x1="0%" y1="0%" x2="50%" y2="100%" id="linearGradient-1">
            <stop stop-color="#77A0FE" offset="0%"></stop>
            <stop stop-color="#5789FE" offset="100%"></stop>
        </linearGradient>
        <rect id="path-2" x="0" y="0" width="38" height="38" rx="10"></rect>
        <filter x="-17.1%" y="-14.5%" width="134.2%" height="134.2%" filterUnits="objectBoundingBox" id="filter-3">
            <feOffset dx="0" dy="1" in="SourceAlpha" result="shadowOffsetOuter1"></feOffset>
            <feGaussianBlur stdDeviation="2" in="shadowOffsetOuter1" result="shadowBlurOuter1"></feGaussianBlur>
            <feColorMatrix values="0 0 0 0 0   0 0 0 0 0.12892169   0 0 0 0 0.425441576  0 0 0 0.2 0" type="matrix" in="shadowBlurOuter1"></feColorMatrix>
        </filter>
        <polygon id="path-4" points="0 -8.87956118e-05 20.7776479 -8.87956118e-05 20.7776479 20.7778221 0 20.7778221"></polygon>
    </defs>
    <g id="页面-1" stroke="none" stroke-width="1" fill="none" fill-rule="evenodd">
        <g id="iPhone-11备份-4" transform="translate(-143.000000, -405.000000)">
            <g id="我的应急" transform="translate(13.000000, 363.000000)">
                <g id="ul" transform="translate(109.000000, 41.000000)">
                    <g id="icon/应急预案任务" transform="translate(25.000000, 4.000000)">
                        <g id="矩形">
                            <use fill="black" fill-opacity="1" filter="url(#filter-3)" xlink:href="#path-2"></use>
                            <use fill="url(#linearGradient-1)" fill-rule="evenodd" xlink:href="#path-2"></use>
                        </g>
                        <g id="编组" transform="translate(8.550000, 8.550000)">
                            <mask id="mask-5" fill="white">
                                <use xlink:href="#path-4"></use>
                            </mask>
                            <g id="Clip-2"></g>
                            <path d="M8.19933125,5.41301292 L5.75577292,7.85657125 L4.79437292,6.89865458 C4.50438542,6.60953792 4.03500625,6.60953792 3.74588958,6.89865458 C3.45677292,7.18864208 3.45677292,7.65715042 3.74588958,7.94713792 L5.22978958,9.43103792 C5.51890625,9.72015458 5.98828542,9.72015458 6.27827292,9.43103792 L9.24781458,6.46323792 C9.53780208,6.17412125 9.53780208,5.70387125 9.24868542,5.41388375 C8.95869792,5.12389625 8.48931875,5.12389625 8.19933125,5.41301292 L8.19933125,5.41301292 Z M7.28495625,14.1483421 C6.85389375,14.5872421 6.14851875,14.5942087 5.70874792,14.1631462 C5.26984792,13.7329546 5.26201042,13.0275796 5.69307292,12.5886796 C5.69829792,12.5825837 5.70352292,12.5773587 5.70874792,12.5721337 C6.14851875,12.1410712 6.85389375,12.1489087 7.28495625,12.5886796 C7.70905208,13.0214837 7.70905208,13.7146671 7.28495625,14.1483421 L7.28495625,14.1483421 Z M6.49685208,10.7616712 C5.06171875,10.7259671 3.87041875,11.8606629 3.83471458,13.2940546 C3.79901042,14.7291879 4.93283542,15.9204879 6.36709792,15.9561921 C6.41063958,15.9579337 6.45418125,15.9579337 6.49685208,15.9561921 C7.93024375,15.9056837 9.05187708,14.7021921 9.00136875,13.2688004 C8.95347292,11.9059462 7.85970625,10.8113087 6.49685208,10.7634129 L6.49685208,10.7616712 Z M16.8876354,12.6174171 L10.9502938,12.6174171 C10.5401312,12.6174171 10.2092146,12.9492046 10.2092146,13.3584962 C10.2092146,13.7677879 10.5401312,14.0995754 10.9502938,14.0995754 L16.8876354,14.0995754 C17.2960562,14.0995754 17.6278437,13.7677879 17.6278437,13.3584962 C17.6278437,12.9492046 17.2960562,12.6174171 16.8876354,12.6174171 L16.8876354,12.6174171 Z M16.8876354,6.67659208 L10.9502938,6.67659208 C10.5401313,6.67659208 10.2083438,7.00925042 10.2083438,7.41854208 C10.2083438,7.82870458 10.5401313,8.16049208 10.9502938,8.16049208 L16.8876354,8.16049208 C17.2969271,8.16049208 17.6287146,7.82870458 17.6287146,7.41854208 C17.6287146,7.00925042 17.2969271,6.67659208 16.8876354,6.67659208 L16.8876354,6.67659208 Z M19.2972347,17.8136796 C19.2989729,18.6296504 18.6380104,19.2940962 17.8211688,19.2958523 L2.97433125,19.2958523 C2.57897292,19.2975796 2.20016042,19.1408296 1.92149375,18.8612921 C1.64108542,18.5843671 1.48346458,18.2072962 1.48433183,17.8136796 L1.48433183,2.96945458 C1.48433183,2.14738792 2.15139375,1.48207125 2.97258958,1.48207125 L17.8115896,1.48207125 C18.6310437,1.48207125 19.2972347,2.14738792 19.2972347,2.96771292 L19.2972347,17.8136796 Z M17.8098479,-8.87956118e-05 L2.97084792,-8.87956118e-05 C1.33193958,-0.00182875 0.00130625,1.32532125 -0.000435416667,2.96422958 L-0.000435416667,2.96771292 L-0.000435416667,17.8084546 C-0.000435416667,19.4482337 1.32758542,20.7779962 2.96823542,20.7779962 L17.8081062,20.7779962 C19.4478854,20.7779962 20.7776479,19.4482337 20.7776479,17.8084546 L20.7776479,2.96945458 C20.7776479,1.32967542 19.4478854,-8.87956118e-05 17.8081062,-8.87956118e-05 L17.8098479,-8.87956118e-05 Z" id="Fill-1" fill="#FFFFFF" mask="url(#mask-5)"></path>
                        </g>
                    </g>
                </g>
            </g>
        </g>
    </g>
</svg>