<?xml version="1.0" encoding="UTF-8"?>
<svg width="36px" height="38px" viewBox="0 0 36 38" version="1.1" xmlns="http://www.w3.org/2000/svg" xmlns:xlink="http://www.w3.org/1999/xlink">
    <title>icon/我的工单</title>
    <defs>
        <linearGradient x1="9.53843494%" y1="0%" x2="50%" y2="100%" id="linearGradient-1">
            <stop stop-color="#6DF6F1" offset="0%"></stop>
            <stop stop-color="#00C1FB" offset="100%"></stop>
        </linearGradient>
        <path d="M18.9601875,3.6148625 L17.4605625,3.6148625 L5.5389375,3.6148625 L4.0393125,3.6148625 C2.0143125,3.6148625 0.3650625,5.2629875 0.3650625,7.2891125 L0.3650625,24.6973625 C0.3650625,26.7234875 2.0143125,28.3716125 4.0393125,28.3716125 L18.9601875,28.3716125 C20.9863125,28.3716125 22.6355625,26.7234875 22.6355625,24.6973625 L22.6355625,7.2891125 C22.6355625,5.2629875 20.9863125,3.6148625 18.9601875,3.6148625" id="path-2"></path>
        <filter x="-29.2%" y="-22.2%" width="158.4%" height="152.5%" filterUnits="objectBoundingBox" id="filter-3">
            <feOffset dx="0" dy="1" in="SourceAlpha" result="shadowOffsetOuter1"></feOffset>
            <feGaussianBlur stdDeviation="2" in="shadowOffsetOuter1" result="shadowBlurOuter1"></feGaussianBlur>
            <feColorMatrix values="0 0 0 0 0   0 0 0 0 0.368513324   0 0 0 0 0.475996377  0 0 0 0.2 0" type="matrix" in="shadowBlurOuter1"></feColorMatrix>
        </filter>
        <path d="M14.2810875,7.214975 L8.6920875,7.214975 C6.8189625,7.214975 5.3002125,5.6951 5.3002125,3.821975 L5.3002125,3.407975 C5.3002125,1.533725 6.8189625,0.014975 8.6920875,0.014975 L14.2810875,0.014975 C16.1553375,0.014975 17.6752125,1.533725 17.6752125,3.407975 L17.6752125,3.821975 C17.6752125,5.6951 16.1553375,7.214975 14.2810875,7.214975" id="path-4"></path>
        <filter x="-56.6%" y="-69.4%" width="213.1%" height="294.4%" filterUnits="objectBoundingBox" id="filter-5">
            <feOffset dx="0" dy="2" in="SourceAlpha" result="shadowOffsetOuter1"></feOffset>
            <feGaussianBlur stdDeviation="2" in="shadowOffsetOuter1" result="shadowBlurOuter1"></feGaussianBlur>
            <feColorMatrix values="0 0 0 0 0.588235294   0 0 0 0 0.745098039   0 0 0 0 0.960784314  0 0 0 0.5 0" type="matrix" in="shadowBlurOuter1"></feColorMatrix>
        </filter>
    </defs>
    <g id="页面-1" stroke="none" stroke-width="1" fill="none" fill-rule="evenodd">
        <g id="iPhone-11备份-4" transform="translate(-16.000000, -89.000000)">
            <g id="我的待办" transform="translate(16.000000, 89.000000)">
                <g id="编组" transform="translate(6.750000, 3.250000)">
                    <g id="Fill-2">
                        <use fill="black" fill-opacity="1" filter="url(#filter-3)" xlink:href="#path-2"></use>
                        <use fill="url(#linearGradient-1)" fill-rule="evenodd" xlink:href="#path-2"></use>
                    </g>
                    <path d="M16.92225,13.003775 C16.479,12.520025 15.7275,12.4874 15.244875,12.93065 L10.501875,17.2709 L10.46475,17.23265 L7.794,14.5619 C7.56225,14.331275 7.257375,14.2154 6.953625,14.2154 C6.64875,14.2154 6.346125,14.331275 6.114375,14.5619 C5.650875,15.0254 5.650875,15.77915 6.114375,16.241525 L9.47475,19.603025 C9.604125,19.7324 9.765,19.828025 9.950625,19.88765 C10.438875,20.154275 10.971,20.062025 11.32875,19.7324 L16.848,14.68115 C17.330625,14.239025 17.364375,13.4864 16.92225,13.003775" id="Fill-4" fill="#FFFFFF"></path>
                    <g id="Fill-6">
                        <use fill="black" fill-opacity="1" filter="url(#filter-5)" xlink:href="#path-4"></use>
                        <use fill="#81EEFD" fill-rule="evenodd" xlink:href="#path-4"></use>
                    </g>
                </g>
            </g>
        </g>
    </g>
</svg>