<?xml version="1.0" encoding="UTF-8"?>
<svg width="46px" height="46px" viewBox="0 0 46 46" version="1.1" xmlns="http://www.w3.org/2000/svg" xmlns:xlink="http://www.w3.org/1999/xlink">
    <title>icon/预案信息</title>
    <defs>
        <linearGradient x1="0%" y1="0%" x2="50%" y2="100%" id="linearGradient-1">
            <stop stop-color="#6DF6F1" offset="0%"></stop>
            <stop stop-color="#00C1FB" offset="100%"></stop>
        </linearGradient>
        <rect id="path-2" x="0" y="0" width="38" height="38" rx="10"></rect>
        <filter x="-17.1%" y="-14.5%" width="134.2%" height="134.2%" filterUnits="objectBoundingBox" id="filter-3">
            <feOffset dx="0" dy="1" in="SourceAlpha" result="shadowOffsetOuter1"></feOffset>
            <feGaussianBlur stdDeviation="2" in="shadowOffsetOuter1" result="shadowBlurOuter1"></feGaussianBlur>
            <feColorMatrix values="0 0 0 0 0   0 0 0 0 0.368513324   0 0 0 0 0.475996377  0 0 0 0.2 0" type="matrix" in="shadowBlurOuter1"></feColorMatrix>
        </filter>
        <polygon id="path-4" points="0 0.0893 18.95098 0.0893 18.95098 21.900255 0 21.900255"></polygon>
        <polygon id="path-6" points="0.156374383 0.746605 10.5108 0.746605 10.5108 13.299905 0.156374383 13.299905"></polygon>
    </defs>
    <g id="页面-1" stroke="none" stroke-width="1" fill="none" fill-rule="evenodd">
        <g id="iPhone-11备份-4" transform="translate(-244.000000, -405.000000)">
            <g id="我的应急" transform="translate(13.000000, 363.000000)">
                <g id="ul" transform="translate(225.000000, 45.000000)">
                    <g id="icon/预案信息" transform="translate(10.000000, 0.000000)">
                        <g id="矩形">
                            <use fill="black" fill-opacity="1" filter="url(#filter-3)" xlink:href="#path-2"></use>
                            <use fill="url(#linearGradient-1)" fill-rule="evenodd" xlink:href="#path-2"></use>
                        </g>
                        <g id="编组" transform="translate(8.550000, 7.600000)">
                            <path d="M9.587495,11.32571 C9.440245,11.15661 9.247395,11.05401 9.019395,11.05401 L4.328295,11.05401 C4.101245,11.05401 3.896045,11.16706 3.761145,11.32571 C3.602495,11.47296 3.522695,11.71046 3.522695,11.91566 C3.522695,12.12086 3.625295,12.34791 3.761145,12.50561 C3.907445,12.67471 4.101245,12.77731 4.328295,12.77731 L9.019395,12.77731 C9.235995,12.77731 9.451645,12.67471 9.587495,12.50561 C9.746145,12.35836 9.825945,12.12086 9.825945,11.91566 C9.825945,11.71046 9.723345,11.48436 9.587495,11.32571" id="Fill-1" fill="#FFFFFF"></path>
                            <g transform="translate(0.000000, 0.860890)">
                                <mask id="mask-5" fill="white">
                                    <use xlink:href="#path-4"></use>
                                </mask>
                                <g id="Clip-4"></g>
                                <path d="M9.39588,20.390705 L2.99953,20.390705 C2.59198,20.390705 2.22623,20.208305 1.95453,19.948005 C1.68283,19.687705 1.51183,19.313405 1.51183,18.903955 L1.51183,3.111155 C1.51183,2.702655 1.68283,2.337855 1.95453,2.066155 C2.21483,1.794455 2.58913,1.623455 2.99953,1.623455 L16.05823,1.623455 C16.42208,1.650055 16.74793,1.807755 16.99493,2.054755 C17.26663,2.316005 17.43858,2.689355 17.43858,3.099755 L17.43858,9.565455 C17.43858,9.880855 17.71218,10.155405 18.01903,10.153505 L18.36103,10.153505 C18.67833,10.153505 18.95098,9.892255 18.95098,9.563555 L18.95098,3.088355 C18.95098,2.271355 18.60898,1.498055 18.07508,0.964155 C17.65043,0.539505 17.08803,0.245955 16.45343,0.139555 C16.38788,0.122455 16.32328,0.100605 16.25868,0.100605 L16.06203,0.100605 C16.02498,0.098705 15.98888,0.089205 15.95088,0.089205 L13.19018,0.089205 C13.17213,0.089205 13.15598,0.098705 13.13793,0.100605 L2.99953,0.100605 C2.16923,0.100605 1.40923,0.440705 0.87533,0.975555 C0.34048,1.509455 -0.00057,2.258055 -0.00057,3.099755 L-0.00057,18.902055 C-0.00057,19.718105 0.34048,20.490455 0.87533,21.025305 C1.40923,21.559205 2.18158,21.900255 2.99953,21.900255 L9.39588,21.900255 C9.71413,21.900255 9.98583,21.639955 9.98583,21.310305 L9.98583,20.969255 C9.98583,20.642455 9.71413,20.379305 9.39588,20.390705" id="Fill-3" fill="#FFFFFF" mask="url(#mask-5)"></path>
                            </g>
                            <path d="M14.28135,7.98361 C14.43905,7.83636 14.5198,7.63211 14.5198,7.41551 C14.5198,7.18941 14.4172,6.98421 14.28135,6.84836 C14.1341,6.70111 13.92985,6.62131 13.71325,6.62131 L4.3282,6.62131 C4.11255,6.62131 3.89595,6.71251 3.76105,6.84836 C3.6024,6.99466 3.5226,7.19986 3.5226,7.41551 C3.5226,7.64351 3.6252,7.84776 3.76105,7.98361 C3.90735,8.13086 4.11255,8.21066 4.3282,8.21066 L13.71325,8.21066 C13.92985,8.21066 14.1208,8.13086 14.28135,7.98361" id="Fill-5" fill="#FFFFFF"></path>
                            <path d="M9.01968,15.621135 L4.32858,15.621135 C4.10153,15.621135 3.89633,15.734185 3.76048,15.891885 C3.60278,16.039135 3.52203,16.277585 3.52203,16.481835 C3.52203,16.687035 3.62463,16.914085 3.76048,17.071785 C3.90773,17.241835 4.10153,17.343485 4.32858,17.343485 L9.01968,17.343485 C9.23628,17.343485 9.45193,17.241835 9.58778,17.071785 C9.74548,16.925485 9.82623,16.687035 9.82623,16.481835 C9.82623,16.277585 9.72363,16.050535 9.58778,15.891885 C9.44053,15.722785 9.24673,15.621135 9.01968,15.621135" id="Fill-7" fill="#FFFFFF"></path>
                            <g transform="translate(10.450000, 10.360890)">
                                <mask id="mask-7" fill="white">
                                    <use xlink:href="#path-6"></use>
                                </mask>
                                <g id="Clip-10"></g>
                                <path d="M1.59087,10.652255 L2.55797,8.722805 L2.59122,8.663905 L2.59122,5.324655 C2.59122,4.562755 2.89617,3.870205 3.39682,3.369555 C3.88702,2.870805 4.59002,2.563005 5.35192,2.563005 C6.11382,2.563005 6.80542,2.882205 7.30702,3.369555 C7.80577,3.859755 8.11262,4.562755 8.11262,5.324655 L8.11262,8.663905 L9.10157,10.652255 L1.59087,10.652255 Z M5.87727,11.970855 C5.72812,12.084855 5.55902,12.141855 5.36522,12.141855 C5.17237,12.141855 4.97762,12.073455 4.84177,11.970855 C4.76197,11.926205 4.70592,11.868255 4.67457,11.813155 L6.04827,11.813155 C6.00267,11.868255 5.94662,11.926205 5.87727,11.970855 L5.87727,11.970855 Z M10.44107,10.912555 L9.28397,8.584105 L9.28397,5.335105 C9.27257,4.244505 8.84127,3.267905 8.07747,2.552555 C7.59867,2.075655 7.00872,1.724155 6.33802,1.541755 C6.28197,1.087655 5.84022,0.746605 5.30537,0.746605 C4.78382,0.746605 4.34112,1.098105 4.27177,1.541755 C3.61342,1.735555 3.00922,2.087055 2.53327,2.552555 C1.82932,3.267905 1.38662,4.244505 1.38662,5.335105 L1.38662,8.584105 L0.22857,10.912555 C0.17062,11.004705 0.14782,11.117755 0.15922,11.220355 C0.18202,11.322955 0.20387,11.414155 0.26182,11.516755 C0.31787,11.607955 0.40907,11.674455 0.48887,11.732405 C0.58102,11.790355 0.68267,11.813155 0.79667,11.813155 L3.35217,11.813155 C3.46617,12.209305 3.70462,12.563655 4.03332,12.834405 C4.38482,13.127955 4.83987,13.299905 5.34052,13.299905 C5.84212,13.299905 6.29622,13.130805 6.64772,12.834405 C6.97737,12.574105 7.21582,12.221655 7.32887,11.813155 L9.87392,11.813155 C9.98792,11.813155 10.10097,11.790355 10.18172,11.732405 C10.27292,11.687755 10.35082,11.619355 10.40782,11.516755 C10.48857,11.436005 10.51137,11.322955 10.51137,11.220355 C10.51137,11.129155 10.48572,11.016105 10.44107,10.912555 L10.44107,10.912555 Z" id="Fill-9" fill="#FFFFFF" mask="url(#mask-7)"></path>
                            </g>
                        </g>
                    </g>
                </g>
            </g>
        </g>
    </g>
</svg>